PathFileType	4	(X/Y/Z)	C:/Users/beibeiliu/ov580/test_trc/User3\sequence.20_training_dense_left.trc
DataRate	CameraRate	NumFrames	NumMarkers	Units	OrigDataRate	OrigDataStartFrame	OrigNumFrames
120	120	14	19	mm	120	174	346
Frame#	Time	ThumbCMC			ThumbMCP			ThumbIP			ThumbTip			IndexMCP			IndexPIP			IndexTip			MiddleMCP			MiddlePIP			MiddleTip			RingMCP			RingPIP			RingTip			PinkyMCP			PinkyPIP			PinkyTip			BackHand1			BackHand2			BackHand3	
		X0	Y0	Z0	X1	Y1	Z1	X2	Y2	Z2	X3	Y3	Z3	X4	Y4	Z4	X5	Y5	Z5	X6	Y6	Z6	X7	Y7	Z7	X8	Y8	Z8	X9	Y9	Z9	X10	Y10	Z10	X11	Y11	Z11	X12	Y12	Z12	X13	Y13	Z13	X14	Y14	Z14	X15	Y15	Z15	X16	Y16	Z16	X17	Y17	Z17	X18	Y18	Z18	
173	1.44167	-202.774	18.1353	58.868	-168.414	19.6914	57.6645	-140.022	3.33458	51.3158	-142.171	-23.2659	50.3201	-156.331	-5.93274	5.48613	-127.948	-11.7429	25.3415	-147.468	-9.36283	49.3416	-156.34	-27.4957	2.88805	-131.19	-31.2186	25.7337	-161.195	-22.7724	51.9827	-163.233	-42.1533	12.166	-143.245	-51.3908	34.1891	-162.81	-34.3261	58.2247	-172.834	-58.3312	20.1357	-155.078	-57.121	42.2472	-175.626	-48.477	63.9585	-220.093	-28.6058	19.6214	-239.972	-27.6147	38.6427	-221.061	4.83629	29.5919	
174	1.45	-205.316	22.6646	59.02	-172.861	27.869	57.1994	-141.908	15.478	53.7307	-144.409	-11.6216	53.3775	-156.057	5.72309	7.18135	-127.924	-1.51861	26.1106	-148.858	3.45136	52.0855	-152.141	-19.5948	5.94831	-128.758	-20.8808	30.2868	-154.925	-16.7109	54.7691	-155.927	-38.8536	16.5484	-137.768	-34.6786	41.0139	-161.389	-26.2173	61.6732	-165.403	-52.6422	26.4456	-148.71	-46.1727	47.0955	-170.953	-38.7095	67.4341	-214.875	-32.6597	20.041	-239.148	-30.1347	40.0777	-223.097	4.13254	31.2956	
175	1.45833	-213.79	26.5733	59.2382	-177.744	39.7026	56.8502	-150.068	26.4695	54.3782	-140.141	0.307658	57.128	-156.674	8.9756	8.33929	-128.667	15.7367	23.3052	-149.325	18.2093	52.2091	-149.735	-11.8036	7.31857	-126.03	-8.86666	28.3003	-157.615	-4.63589	56.8077	-152.819	-28.166	20.0107	-134.964	-21.112	44.2116	-157.166	-14.6762	64.0222	-158.277	-44.8127	31.4222	-145.122	-35.6182	52.842	-168.032	-27.1169	72.1446	-214.103	-29.6891	26.8739	-235.673	-29.215	42.5796	-225.643	3.42937	31.97	
176	1.46667	-217.256	29.961	54.1902	-187.424	46.8866	53.7335	-157.847	39.899	53.0434	-145.467	14.7665	57.0305	-160.862	16.3486	7.62128	-134.835	24.5052	27.1497	-154.338	27.8095	50.4798	-150.635	-2.8056	8.36028	-128.881	7.89208	28.0653	-160.703	8.69151	57.4663	-151.458	-19.8362	22.3702	-133.553	-12.0891	45.2175	-162.4	-2.17078	64.4232	-156.864	-31.499	33.6533	-143.095	-22.6888	58.1053	-166.977	-17.4822	73.8486	-210.314	-31.4947	28.1152	-233.324	-33.2762	44.4907	-226.328	2.29101	28.2895	
177	1.475	-228.361	33.2128	51.2464	-198.552	53.0223	49.3716	-170.041	50.7885	48.8534	-154.134	24.2625	54.0092	-164.265	26.9074	3.85595	-142.217	38.2049	23.4968	-167.432	38.4835	47.864	-156.42	5.82367	8.47412	-134.203	20.9131	31.0768	-163.293	17.4689	54.6126	-152.21	-6.30119	20.3479	-135.23	2.69745	42.8694	-165.113	8.12023	63.3393	-156.668	-27.5255	35.9824	-140.879	-11.0981	54.7266	-166.965	-6.94572	73.246	-205.344	-30.1323	27.0805	-231.642	-36.7972	48.9913	-230.875	-2.5768	28.9753	
178	1.48333	-237.486	31.795	47.9063	-212.019	51.1776	42.8911	-179.358	59.0026	41.8046	-161.451	37.5727	50.9011	-176.602	31.4045	2.12268	-152.534	47.2806	19.3604	-180.13	46.1383	44.403	-159.8	18.2142	4.48569	-144.498	35.2969	28.0564	-173.786	27.7105	51.3844	-157.491	1.24033	18.6028	-140.554	14.537	42.9896	-169.209	18.982	60.0862	-154.185	-16.3564	34.5527	-144.053	2.30791	48.8666	-168.395	6.53808	68.3581	-204.673	-29.6826	30.026	-229.939	-34.5658	45.6031	-235.408	-3.35552	27.1009	
179	1.49167	-248.552	27.403	45.6677	-229.255	53.8865	38.479	-195.574	59.6681	35.6159	-177.964	44.8611	44.6746	-183.254	34.5307	-3.66313	-168.389	57.0067	9.20532	-186.794	49.5051	37.824	-171.762	20.9176	0.727065	-154.521	42.557	18.0764	-181.376	32.8966	46.1105	-162.22	3.69135	17.1191	-149.116	25.7327	32.9864	-176.827	24.9362	55.4092	-158.165	-8.02551	31.4064	-151.615	14.4617	45.894	-173.545	13.101	65.2296	-209.197	-28.9531	30.7078	-232.599	-35.0771	49.0687	-240.644	-8.43357	27.8883	
180	1.5	-256.533	23.0165	40.1701	-242.568	51.9862	31.574	-207.064	63.1063	25.4762	-188.344	43.0289	37.7265	-197.814	30.1909	-8.62714	-181.61	57.0771	4.75704	-204.489	52.8698	28.856	-180.595	25.748	-6.85736	-168.584	48.9815	12.5652	-194.518	36.1036	39.311	-168.28	10.477	7.90622	-159.404	33.476	21.8606	-184.596	30.2757	48.3224	-168.901	-0.155443	23.4026	-159.612	20.9566	36.339	-179.706	19.4934	58.8549	-215.173	-25.7257	23.8385	-231.529	-39.0776	43.4954	-243.987	-12.056	26.6178	
181	1.50833	-263.341	18.486	35.986	-250.569	50.4027	22.5062	-222.786	61.7843	17.5723	-197.769	44.393	27.9634	-208.552	31.8574	-19.3617	-195.092	55.792	-8.33252	-218.767	50.733	19.8559	-192.129	21.4995	-14.2143	-181.168	48.9669	-2.21374	-204.02	34.4397	31.4764	-181.246	6.94974	1.5133	-170.08	35.3813	14.8723	-190.25	33.7507	37.9985	-175.581	-3.72479	18.3565	-171.432	24.3785	26.3461	-188.291	20.0978	51.7143	-221.49	-27.9584	20.7499	-237.528	-40.4682	45.7209	-248.916	-15.3975	19.8074	
182	1.51667	-272.655	13.4597	35.4096	-260.541	45.2424	17.5761	-230.721	57.7503	9.01341	-207.795	44.4147	19.0097	-222.868	24.903	-25.5754	-207.887	53.0834	-19.0945	-227.3	47.8787	11.922	-204.454	18.258	-23.4372	-191.297	46.0652	-7.7964	-210.19	35.5127	20.8228	-193.435	9.61585	-11.0193	-180.016	33.1605	1.93226	-200.007	30.6981	30.9269	-184.863	-2.47396	7.5355	-174.25	20.1834	17.5286	-195.075	17.1146	42.3889	-226.493	-31.1819	19.2078	-244.258	-42.5292	42.7011	-259.234	-19.0405	19.2327	
183	1.525	-278.626	9.14099	30.7335	-269.65	40.9716	12.7081	-241.599	52.323	1.78625	-219.357	35.089	12.8633	-231.019	18.4758	-32.2472	-221.121	50.5705	-24.6962	-236.789	45.5969	2.43853	-214.57	8.76828	-29.3068	-201.094	40.5407	-19.1627	-220.571	29.7165	12.8656	-202.706	1.16388	-17.3212	-186.964	26.9348	-7.99631	-205.299	29.8757	18.4331	-193.807	-9.41113	0.818839	-187.296	17.6002	5.44389	-200.644	19.4309	31.4031	-238.09	-34.2724	15.9108	-247.515	-47.4603	40.2224	-267.553	-24.3976	18.5091	
184	1.53333	-286.024	7.19349	25.8408	-277.209	35.846	8.72803	-249.35	44.0751	-3.36977	-227.302	33.6592	3.45201	-243.684	11.0897	-36.7729	-230.638	40.1147	-35.9387	-241.154	38.6722	-4.13785	-223.039	4.61072	-38.2481	-213.354	33.4413	-33.8958	-228.43	28.2889	3.51045	-210.213	-5.17853	-26.3587	-198.55	20.765	-20.3905	-214.006	23.9486	11.5372	-203.124	-13.9658	-8.56715	-195.686	12.3157	-5.47897	-205.146	12.3501	23.0494	-243.668	-39.995	11.4192	-255.114	-47.5408	39.0043	-274.695	-27.68	14.1217	
185	1.54167	-291.376	3.53903	26.839	-282.274	29.6704	5.1879	-255.048	38.1921	-11.2205	-232.911	23.9692	-2.11286	-253.492	5.40899	-42.8426	-239.822	32.3159	-41.5496	-249.315	31.7413	-9.93322	-238.604	-3.92848	-44.6398	-221.711	22.5971	-41.0863	-234.329	21.3475	-4.45673	-223.822	-14.0289	-28.8505	-209.08	13.0874	-31.6054	-221.363	18.6936	1.0902	-215.907	-22.094	-11.3493	-201.947	4.63735	-12.3571	-212.935	7.69407	12.5704	-251.834	-44.8554	9.31726	-261.022	-50.1753	34.6354	-282.549	-31.446	13.6594	
186	1.55	-297.827	-0.69852	26.0593	-286.953	24.563	2.64896	-262.365	35.3134	-15.4999	-237.632	21.9152	-10.324	-264.738	-4.92903	-42.6963	-249.537	25.9936	-43.9707	-257.678	25.4733	-15.4152	-246.24	-16.5498	-44.705	-232.127	15.3946	-47.5856	-241.108	15.2798	-10.2427	-232.838	-19.9885	-37.8074	-215.789	4.53136	-36.0493	-227.746	9.06356	-3.05204	-218.478	-30.0846	-19.978	-211.633	-5.13758	-24.029	-222.054	2.24324	5.31494	-252.969	-52.4562	11.2502	-263.769	-57.7589	34.9361	-289.215	-37.4163	17.3247	
